<mxfile host="app.diagrams.net" modified="2024-05-12T01:46:35.521Z" agent="Mozilla/5.0 (Windows NT 10.0; Win64; x64; rv:125.0) Gecko/20100101 Firefox/125.0" version="24.3.1" etag="GQouF9kRI3MlJ5l8k_G9" type="github">
  <diagram name="PÃ¡gina-1" id="tkLbO8by5taO0nFYaN6b">
    <mxGraphModel>
      <root>
        <mxCell id="0" />
        <mxCell id="1" parent="0" />
      </root>
    </mxGraphModel>
  </diagram>
</mxfile>
